<?xml version="1.0" encoding="iso-8859-1"?>
<!-- Generator: Adobe Illustrator 19.0.1, SVG Export Plug-In . SVG Version: 6.00 Build 0)  -->
<svg version="1.1" xmlns="http://www.w3.org/2000/svg" xmlns:xlink="http://www.w3.org/1999/xlink" x="0px" y="0px"
	 viewBox="0 0 128 128" style="enable-background:new 0 0 128 128;" xml:space="preserve">
<g id="_x39_">
	<path id="icon_18_" style="fill:#161616;" d="M34.212,73.029c-0.265-0.029-0.51,0.167-0.54,0.432l-0.059,0.491
		c-0.029,0.275,0.167,0.52,0.442,0.55h0.049c0.245,0,0.461-0.186,0.491-0.442l0.049-0.491
		C34.673,73.304,34.477,73.058,34.212,73.029z M42.485,57.955c-0.177-0.216-0.481-0.245-0.697-0.088
		c-0.285,0.236-6.978,5.643-7.802,13.975c-0.029,0.265,0.167,0.5,0.442,0.53h0.049c0.245,0,0.461-0.186,0.481-0.442
		c0.785-7.9,7.38-13.239,7.449-13.288C42.612,58.475,42.652,58.161,42.485,57.955z M0,73.343v1.963h26.498v-1.963H0z M10.795,66.738
		v1.963h15.702v-1.963H10.795z M4.907,59.692v1.963h23.701v-1.963H4.907z M73.595,54.461h0.108v-0.069
		C73.674,54.412,73.635,54.441,73.595,54.461z M112.253,76.817c-4.406,0-7.989,3.582-7.989,7.989c0,4.397,3.582,7.979,7.989,7.979
		c4.397,0,7.979-3.582,7.979-7.979C120.231,80.399,116.649,76.817,112.253,76.817z M112.253,90.822
		c-3.327,0-6.026-2.699-6.026-6.016c0-3.327,2.699-6.026,6.026-6.026c3.317,0,6.016,2.699,6.016,6.026
		C118.269,88.123,115.57,90.822,112.253,90.822z M112.253,76.817c-4.406,0-7.989,3.582-7.989,7.989c0,4.397,3.582,7.979,7.989,7.979
		c4.397,0,7.979-3.582,7.979-7.979C120.231,80.399,116.649,76.817,112.253,76.817z M112.253,90.822
		c-3.327,0-6.026-2.699-6.026-6.016c0-3.327,2.699-6.026,6.026-6.026c3.317,0,6.016,2.699,6.016,6.026
		C118.269,88.123,115.57,90.822,112.253,90.822z M112.253,76.817c-4.406,0-7.989,3.582-7.989,7.989c0,4.397,3.582,7.979,7.989,7.979
		c4.397,0,7.979-3.582,7.979-7.979C120.231,80.399,116.649,76.817,112.253,76.817z M112.253,90.822
		c-3.327,0-6.026-2.699-6.026-6.016c0-3.327,2.699-6.026,6.026-6.026c3.317,0,6.016,2.699,6.016,6.026
		C118.269,88.123,115.57,90.822,112.253,90.822z M112.253,76.817c-4.406,0-7.989,3.582-7.989,7.989c0,4.397,3.582,7.979,7.989,7.979
		c4.397,0,7.979-3.582,7.979-7.979C120.231,80.399,116.649,76.817,112.253,76.817z M112.253,90.822
		c-3.327,0-6.026-2.699-6.026-6.016c0-3.327,2.699-6.026,6.026-6.026c3.317,0,6.016,2.699,6.016,6.026
		C118.269,88.123,115.57,90.822,112.253,90.822z M112.253,76.817c-4.406,0-7.989,3.582-7.989,7.989c0,4.397,3.582,7.979,7.989,7.979
		c4.397,0,7.979-3.582,7.979-7.979C120.231,80.399,116.649,76.817,112.253,76.817z M112.253,90.822
		c-3.327,0-6.026-2.699-6.026-6.016c0-3.327,2.699-6.026,6.026-6.026c3.317,0,6.016,2.699,6.016,6.026
		C118.269,88.123,115.57,90.822,112.253,90.822z M112.253,76.817c-4.406,0-7.989,3.582-7.989,7.989c0,4.397,3.582,7.979,7.989,7.979
		c4.397,0,7.979-3.582,7.979-7.979C120.231,80.399,116.649,76.817,112.253,76.817z M112.253,90.822
		c-3.327,0-6.026-2.699-6.026-6.016c0-3.327,2.699-6.026,6.026-6.026c3.317,0,6.016,2.699,6.016,6.026
		C118.269,88.123,115.57,90.822,112.253,90.822z M112.253,76.817c-4.406,0-7.989,3.582-7.989,7.989c0,4.397,3.582,7.979,7.989,7.979
		c4.397,0,7.979-3.582,7.979-7.979C120.231,80.399,116.649,76.817,112.253,76.817z M112.253,90.822
		c-3.327,0-6.026-2.699-6.026-6.016c0-3.327,2.699-6.026,6.026-6.026c3.317,0,6.016,2.699,6.016,6.026
		C118.269,88.123,115.57,90.822,112.253,90.822z M112.253,76.817c-4.406,0-7.989,3.582-7.989,7.989c0,4.397,3.582,7.979,7.989,7.979
		c4.397,0,7.979-3.582,7.979-7.979C120.231,80.399,116.649,76.817,112.253,76.817z M112.253,90.822
		c-3.327,0-6.026-2.699-6.026-6.016c0-3.327,2.699-6.026,6.026-6.026c3.317,0,6.016,2.699,6.016,6.026
		C118.269,88.123,115.57,90.822,112.253,90.822z M112.253,76.817c-4.406,0-7.989,3.582-7.989,7.989c0,4.397,3.582,7.979,7.989,7.979
		c4.397,0,7.979-3.582,7.979-7.979C120.231,80.399,116.649,76.817,112.253,76.817z M112.253,90.822
		c-3.327,0-6.026-2.699-6.026-6.016c0-3.327,2.699-6.026,6.026-6.026c3.317,0,6.016,2.699,6.016,6.026
		C118.269,88.123,115.57,90.822,112.253,90.822z M112.253,76.817c-4.406,0-7.989,3.582-7.989,7.989c0,4.397,3.582,7.979,7.989,7.979
		c4.397,0,7.979-3.582,7.979-7.979C120.231,80.399,116.649,76.817,112.253,76.817z M112.253,90.822
		c-3.327,0-6.026-2.699-6.026-6.016c0-3.327,2.699-6.026,6.026-6.026c3.317,0,6.016,2.699,6.016,6.026
		C118.269,88.123,115.57,90.822,112.253,90.822z M42.485,57.955c-0.177-0.216-0.481-0.245-0.697-0.088
		c-0.285,0.236-6.978,5.643-7.802,13.975c-0.029,0.265,0.167,0.5,0.442,0.53h0.049c0.245,0,0.461-0.186,0.481-0.442
		c0.785-7.9,7.38-13.239,7.449-13.288C42.612,58.475,42.652,58.161,42.485,57.955z M34.212,73.029
		c-0.265-0.029-0.51,0.167-0.54,0.432l-0.059,0.491c-0.029,0.275,0.167,0.52,0.442,0.55h0.049c0.245,0,0.461-0.186,0.491-0.442
		l0.049-0.491C34.673,73.304,34.477,73.058,34.212,73.029z M73.595,54.461h0.108v-0.069C73.674,54.412,73.635,54.441,73.595,54.461z
		 M73.595,54.461h0.108v-0.069C73.674,54.412,73.635,54.441,73.595,54.461z M127.16,76.562c0.687-0.697,0.981-1.698,0.775-2.66
		c-0.275-1.305-1.551-5.839-6.448-9.667c-3.013-2.365-8.332-5.035-16.586-4.662l-5.133-9.382l-2.365-4.132
		c0.461,0.108,0.942,0.157,1.423,0.157c0.373,0,0.746-0.029,1.119-0.098c0.785-0.118,2.169-0.697,2.65-3.16
		c0.236-1.227,0.226-2.787-0.039-4.397c-0.255-1.61-0.736-3.091-1.345-4.181c-1.227-2.179-2.728-2.296-3.504-2.169
		c-1.855,0.294-3.494,1.305-4.593,2.826c-0.412,0.579-0.736,1.207-0.952,1.874l-2.875-5.015l-10.069,2.718
		c-0.785,0.216-1.246,1.021-1.04,1.806c0.216,0.785,1.021,1.246,1.806,1.04l4.043-1.089c2.159,4.868,9.206,21.169,10.668,24.564
		l-5.712,11.757c-2.964,0.01-12.101,0.039-15.398,0.245c-2.336,0.147-3.71-0.128-4.563-0.932c-0.913-0.854-1.374-2.493-1.374-4.868
		c0-5.319,6.32-9.461,7.694-10.285h0.275v-4.838h-1.914V28.993H32.386v23.024h-2.768v4.838h6.683
		c-7.361,8.126-8.244,22.454-8.273,23.171l-0.088,1.551h7.331c-0.255,1.05-0.373,2.13-0.373,3.229
		c0,7.832,6.369,14.201,14.201,14.201c7.832,0,14.201-6.369,14.201-14.201c0-1.099-0.118-2.179-0.373-3.229h32.857l0.677-1.403
		l2.247,0.324c-0.442,1.384-0.667,2.826-0.667,4.308c0,7.832,6.379,14.201,14.211,14.201s14.201-6.369,14.201-14.201
		c0-2.689-0.726-5.241-2.1-7.449c0.059,0.01,0.108,0.02,0.167,0.029C125.482,77.573,126.473,77.269,127.16,76.562z M73.703,54.392
		v0.069h-0.108C73.635,54.441,73.674,54.412,73.703,54.392z M95.5,36.766c0.628-0.873,1.551-1.452,2.601-1.639
		c0.373,0.226,1.178,1.56,1.551,3.906c0.383,2.346,0.039,3.867-0.245,4.191c-2.198,0.324-4.269-1.197-4.632-3.405
		C94.607,38.739,94.862,37.649,95.5,36.766z M35.33,31.938h35.429v2.875H35.33V31.938z M35.33,51.517V36.776h15.182v5.977h4.289
		v-5.977h15.958v14.741H35.33z M49.099,96.062c-6.202,0-11.257-5.054-11.257-11.257c0-1.109,0.157-2.188,0.471-3.229h3.494
		c-0.451,1.001-0.687,2.1-0.687,3.229c0,4.397,3.572,7.979,7.979,7.979c4.406,0,7.989-3.582,7.989-7.979
		c0-1.129-0.236-2.228-0.687-3.229h3.494c0.304,1.04,0.461,2.12,0.461,3.229C60.356,91.008,55.312,96.062,49.099,96.062z
		 M43.084,84.806c0-1.158,0.324-2.267,0.942-3.229h10.158c0.608,0.962,0.942,2.071,0.942,3.229c0,3.317-2.709,6.016-6.026,6.016
		C45.782,90.822,43.084,88.123,43.084,84.806z M93.94,78.633H31.11c0.481-4.318,2.444-16.478,9.529-21.777h29.727
		c-2.63,2.267-5.663,5.849-5.663,10.285c0,3.268,0.756,5.555,2.306,7.017c1.521,1.433,3.504,1.767,5.417,1.767
		c0.451,0,0.903-0.02,1.345-0.049c3.788-0.236,16.007-0.236,16.134-0.236h0.913l7.115-14.633l-0.265-0.618
		c-0.373-0.844-8.155-18.892-10.766-24.79l0.962-0.265l9.333,16.301l5.211,9.5L93.94,78.633z M112.253,96.062
		c-6.212,0-11.266-5.054-11.266-11.257c0-1.58,0.324-3.101,0.962-4.524l5.839-3.955c2.061-0.775,7.518-0.343,12.248,0.324
		l-0.01,0.01c2.247,2.139,3.484,5.035,3.484,8.146C123.509,91.008,118.455,96.062,112.253,96.062z M106.511,73.657l-6.104,4.112
		l-2.601-0.373l7.204-14.868c14.201-0.667,19.285,8.371,20.07,11.963C123.637,74.216,110.83,71.822,106.511,73.657z"/>
</g>
<g id="Layer_1">
</g>
</svg>
